<?xml version="1.0" encoding="UTF-8" standalone="no"?>
<!-- Created with Inkscape (http://www.inkscape.org/) -->

<svg
   width="178.9631mm"
   height="148.92786mm"
   viewBox="0 0 178.9631 148.92786"
   version="1.1"
   id="svg510"
   inkscape:version="1.2.1 (9c6d41e410, 2022-07-14)"
   sodipodi:docname="mr-cigars-logo.svg"
   inkscape:export-filename="mr-cigars-logo.png"
   inkscape:export-xdpi="35.482174"
   inkscape:export-ydpi="35.482174"
   xmlns:inkscape="http://www.inkscape.org/namespaces/inkscape"
   xmlns:sodipodi="http://sodipodi.sourceforge.net/DTD/sodipodi-0.dtd"
   xmlns="http://www.w3.org/2000/svg"
   xmlns:svg="http://www.w3.org/2000/svg">
  <sodipodi:namedview
     id="namedview512"
     pagecolor="#505050"
     bordercolor="#eeeeee"
     borderopacity="1"
     inkscape:showpageshadow="0"
     inkscape:pageopacity="0"
     inkscape:pagecheckerboard="0"
     inkscape:deskcolor="#505050"
     inkscape:document-units="mm"
     showgrid="false"
     inkscape:zoom="0.51969075"
     inkscape:cx="149.12715"
     inkscape:cy="541.66829"
     inkscape:window-width="1513"
     inkscape:window-height="738"
     inkscape:window-x="203"
     inkscape:window-y="85"
     inkscape:window-maximized="0"
     inkscape:current-layer="layer1" />
  <defs
     id="defs507">
    <clipPath
       clipPathUnits="userSpaceOnUse"
       id="clipPath18">
      <path
         d="M 0,1000 H 1000 V 0 H 0 Z"
         id="path16" />
    </clipPath>
  </defs>
  <g
     inkscape:label="Logo"
     inkscape:groupmode="layer"
     id="layer1"
     transform="translate(-14.064704,-41.942553)">
    <g
       id="g14"
       clip-path="url(#clipPath18)"
       inkscape:label="Center Area"
       transform="matrix(0.28446153,0,0,-0.28446153,-38.684441,272.5343)">
      <g
         id="g20"
         transform="translate(499.7534,356.3275)"
         style="display:inline">
        <path
           d="M 0,0 C 96.826,0 175.795,78.969 175.795,175.795 175.795,272.619 96.826,351.59 0,351.59 -96.824,351.59 -175.793,272.619 -175.793,175.795 -175.793,78.969 -96.824,0 0,0"
           style="fill:#262b33;fill-opacity:1;fill-rule:evenodd;stroke:none"
           id="path22" />
      </g>
      <g
         id="g24"
         transform="translate(499.7534,695.4121)">
        <path
           d="M 0,0 2.733,-111.206 17.076,-0.893 8.166,-111.774 33.964,-3.568 13.514,-112.913 50.48,-7.995 18.707,-114.598 66.444,-14.121 23.7,-116.821 l 57.977,94.94 -53.244,-97.67 67.585,88.36 -63.165,-91.574 76.454,80.812 -72.395,-84.467 84.487,72.381 -80.829,-76.44 91.587,63.153 -88.376,-67.573 97.689,53.238 -94.956,-57.971 102.718,42.739 -100.495,-47.728 106.623,31.765 -104.935,-36.962 109.36,20.45 -108.224,-25.792 110.901,8.906 -110.33,-14.341 111.225,-2.731 -111.225,-2.731 110.33,-14.342 -110.901,8.907 108.224,-25.792 -109.36,20.45 104.935,-36.963 -106.623,31.766 100.495,-47.728 -102.718,42.739 94.956,-57.968 -97.689,53.235 88.376,-67.574 -91.587,63.154 80.829,-76.442 -84.487,72.382 72.395,-84.468 -76.454,80.813 63.165,-91.571 L 28.433,-207.1 81.68,-304.772 23.7,-209.831 66.444,-312.53 18.707,-212.051 50.48,-318.658 13.514,-213.74 33.964,-323.085 8.166,-214.875 17.076,-325.758 2.733,-215.447 0,-326.653 l -2.731,111.206 -14.341,-110.311 8.907,110.883 -25.796,-108.21 20.451,109.345 -36.967,-104.918 31.77,106.607 -47.734,-100.479 42.745,102.699 -57.981,-94.941 53.248,97.672 -67.586,-88.359 63.165,91.571 -76.452,-80.813 72.389,84.468 -84.482,-72.382 80.828,76.442 -91.589,-63.154 88.376,67.574 -97.69,-53.238 94.959,57.971 -102.718,-42.739 100.496,47.728 -106.627,-31.766 104.937,36.963 -109.363,-20.45 108.229,25.792 -110.902,-8.907 110.329,14.342 -111.223,2.731 111.223,2.731 -110.329,14.341 110.902,-8.906 -108.229,25.792 109.363,-20.45 -104.937,36.962 106.627,-31.765 -100.496,47.728 102.718,-42.739 -94.959,57.971 97.69,-53.238 -88.376,67.573 91.589,-63.153 -80.828,76.44 84.482,-72.381 -72.389,84.467 76.452,-80.812 -63.165,91.574 67.586,-88.36 -53.248,97.67 57.981,-94.94 -42.745,102.7 47.734,-100.477 -31.772,106.603 36.969,-104.918 -20.451,109.345 25.796,-108.206 -8.911,110.881 14.345,-110.313 z"
           style="fill:#ffffff;fill-opacity:1;fill-rule:evenodd;stroke:none"
           id="path26" />
      </g>
      <g
         id="g44"
         transform="translate(624.7103,668.6358)">
        <path
           d="m 0,0 c -2.586,0.437 -5.242,0.707 -7.734,0.891 -5.478,0.404 -11.072,0.386 -16.546,-0.087 -10.707,-0.922 -30.135,-4.531 -30.7,-18.401 -0.446,-10.87 15.961,-19.798 24.075,-24.311 5.068,-2.818 10.241,-5.441 15.291,-8.286 7.259,-4.092 12.501,-11.101 14.383,-19.216 3.041,-13.132 -0.183,-24.086 -11.725,-31.631 -3.339,-2.183 -6.625,-4.469 -9.72,-6.989 -5.317,-4.329 -10.864,-10.074 -11.459,-17.268 -0.154,-1.846 0.029,-3.664 0.538,-5.443 2.193,-7.633 10.106,-13.544 16.62,-17.417 l 4.776,-2.838 -5.545,-0.32 c -5.725,-0.328 -11.542,-0.948 -17.139,-2.207 -5.995,-1.349 -15.055,-4.285 -15.209,-11.761 -0.032,-1.506 -0.08,-3.005 -0.159,-4.508 l -0.262,-5.033 -2.84,4.164 c -0.845,1.24 -1.699,2.471 -2.553,3.703 -3.18,4.564 -6.431,9.074 -9.68,13.588 -2.551,3.544 -5.144,7.097 -7.576,10.72 -14.568,21.691 -34.311,40.251 -56.505,53.985 -15.961,9.879 -36.436,19.089 -55.27,20.962 l -0.889,0.09 -0.429,0.783 c -0.667,1.205 -1.509,2.213 -2.637,3.014 -2.844,2.026 -6.379,1.81 -9.691,1.645 -9.539,-0.48 -22.922,-1.849 -27.154,-12.015 -2.468,-5.929 3.175,-17.795 9.829,-18.638 1.615,-0.207 3.167,-0.295 4.796,-0.235 l 0.09,0.003 0.087,-0.006 c 38.508,-2.567 78.139,-40.266 98.554,-70.963 6.851,-10.301 13.107,-21.089 19.208,-31.848 9.903,-17.462 25.078,-35.551 40.812,-48.032 14.506,-11.508 29.555,-17.981 48.226,-18.457 9.552,-0.248 19.253,1.927 27.319,7.175 15.631,10.171 21.253,28.406 21.547,46.221 l 0.003,0.089 0.01,0.084 c 0.324,2.76 0.427,5.711 0.559,8.491 0.219,4.513 0.38,9.033 0.507,13.549 0.134,4.836 0.234,9.687 0.216,14.526 -0.006,1.746 -0.024,3.499 -0.106,5.242 -0.029,0.692 -0.06,1.915 -0.24,2.574 -2.409,8.84 -17.211,11.029 -24.798,11.996 -3.415,0.433 -6.842,0.743 -10.278,0.963 l -0.638,0.04 -0.455,0.451 c -15.693,15.664 -19.361,33.962 1.96,46.665 10.635,6.338 21.908,13.405 30.944,21.905 5.604,5.275 12.201,13.014 10.477,21.324 -1.437,6.917 -7.905,10.89 -14.014,13.299 -13.396,5.279 -29.575,6.116 -43.829,7.552 l -0.346,0.035 -0.301,0.164 c -7.413,4.065 -16.42,11.813 -14.471,21.295 C -18.222,-9.72 -8.427,-4.015 0,0"
           style="fill:#262b33;fill-opacity:1;fill-rule:evenodd;stroke:none"
           id="path46" />
      </g>
      <g
         id="g48"
         transform="translate(587.377,495.7455)">
        <path
           d="m 0,0 c -0.388,-9.821 -1.571,-16.825 -3.555,-21.016 -4.113,-8.687 -11.108,-2.409 -15.439,2.216 3.217,-1.461 5.897,-0.979 8.047,1.448 2.923,3.3 4.619,10.508 5.09,21.619 C -4.085,1.813 -2.134,0.389 0,0 M -29.568,12.921 C -38.857,7.261 -45.442,2.175 -45.442,2.175 c 0.607,1.273 2.249,2.167 2.357,3.393 0.205,2.306 -2.026,6.564 -3.511,7.302 -0.864,0.427 -3.845,-0.879 -5.446,-1.417 8.891,6.5 16.29,10.977 16.29,10.977 0,0 2.243,-2.78 6.184,-9.509 M -47.751,0.15 c -6.038,-3.423 -9.996,-8.126 -10.024,-8.979 0,0 -4.544,6.965 -6.643,10.109 1.56,2.252 5.797,6.429 10.355,8.423 -1.869,-1.775 -4.766,-3.913 -4.552,-4.952 0.431,-2.108 1.939,-4.802 3.155,-5.748 2.255,-1.749 4.767,-0.321 7.709,1.147 M 38.032,12.563 C 55.129,12.195 68.932,9.292 68.865,6.077 68.831,4.533 65.602,3.198 60.362,2.271 c 1.02,0.566 1.581,1.183 1.581,1.827 0,2.834 -10.816,5.132 -24.16,5.132 -13.343,0 -24.158,-2.298 -24.158,-5.132 0,-0.165 0.036,-0.328 0.109,-0.491 -4.268,1.09 -6.812,2.419 -6.781,3.801 0.069,3.216 13.985,5.521 31.079,5.155 M -59.166,8.892 c -3.409,-2.303 -6.305,-5.772 -6.305,-5.772 -20.144,34.825 -64.957,79.184 -108.177,81.821 -0.873,-0.042 -1.816,-0.129 -4.287,0.185 -3.009,0.381 -7.007,8.628 -5.761,11.619 3.119,7.497 14.895,8.487 22.7,8.879 6.214,0.311 7.313,0.069 8.781,-5.23 30.875,-1.1 83.545,-28.151 114.31,-76.29 0,0 -0.155,-0.111 -12.908,-9.419 -18.096,30.896 -81.025,87.777 -121.462,78.043 -1.548,-0.373 -1.367,-2.156 0.446,-5.004 49.323,3.98 90.345,-39.719 112.663,-78.832 M 44.957,126.282 C 81.225,104.733 62.295,89.807 40.454,75.95 14.022,59.185 -16.669,43.985 41.043,20.514 c -16.394,16.362 -17.668,38.864 5.15,52.461 47.27,28.171 57.5,47.39 -1.236,53.307 m -15.04,1.777 c 25.537,-13.502 52.323,-23.157 3.55,-50.461 14.076,10.493 10.641,38.333 -9.243,49.539 -22.327,12.583 -73.096,33.751 5.691,44.711 C 7.477,165.07 4.385,141.56 29.917,128.059 m 21.418,-151.527 2.235,9.145 c 0.065,-5.116 -0.874,-18.16 -2.322,-21.107 -2.629,-5.354 -6.531,-10.892 -7.45,-11.162 -2.411,-0.708 -3.977,-3.269 -6.172,-1.159 -2.003,1.921 -4.748,11.571 -5.54,17.822 -0.413,3.237 -0.934,5.209 -1.416,7.039 -0.807,3.065 -1.514,5.749 -1.514,12.987 v 2.466 h 2.363 v -2.466 c 0,-6.953 0.669,-9.488 1.434,-12.385 0.496,-1.89 1.033,-3.925 1.469,-7.346 0.717,-5.642 2.086,-8.805 3.731,-10.382 1.45,-1.394 3.192,-1.475 4.856,-0.988 0.711,0.212 3.869,2.021 6.122,6.61 1.308,2.662 2.264,6.232 2.204,10.926 m 3.126,-15.837 c -0.483,-7.465 0.361,-4.975 -3.523,-11.048 -1.277,-1.999 -1.68,-4.546 -1.68,-9.157 0,-4.838 -5.267,-16.479 -5.262,-16.596 l -1.688,-0.376 c 3.282,6.573 4.586,12.363 4.586,16.972 0,5.285 -0.196,9.506 1.258,11.777 0.931,1.454 6.353,6.718 6.309,8.428 m -55.123,14.043 3.351,7.82 c -0.382,-0.63 -2.128,-10.626 -2.581,-11.677 -0.485,-1.123 -1.015,-2.351 -1.674,-3.551 -2.353,-4.271 -1.487,-10.932 -9.114,-6.728 -3.496,1.927 -9.12,7.073 -10.328,9.27 -1.003,1.825 -2.117,3.851 -5.181,6.212 -0.944,0.729 -0.85,1.155 -0.669,1.966 l -10.099,15.896 c 3.932,-6.192 15.368,-18.115 18.018,-22.938 1.033,-1.876 1.945,-3.539 4.839,-5.134 5.874,-3.238 8.686,-0.637 10.466,2.592 0.596,1.081 1.104,2.268 1.572,3.347 0.473,1.104 0.903,2.107 1.4,2.925 m -31.315,31.3 2.032,1.161 c 0.317,-0.252 -0.463,-2.48 0.268,-4.04 1.942,-4.131 7.128,-8.027 9.738,-10.843 -1.331,-3.742 5.898,-8.885 6.261,-8.961 -2.425,-1.64 -8.39,1.439 -8.727,6.785 -0.361,5.726 -9.123,11.421 -9.403,12.019 -0.59,1.256 -0.067,3.797 -0.169,3.879 m 53.256,-13.355 2.348,-0.241 c -0.066,-0.617 -0.147,-1.255 -0.246,-2.065 -0.521,-4.179 -1.566,-12.529 -1.535,-20.209 0.029,-8.416 1.261,-16.092 5.759,-16.076 2.337,0.008 2.603,-4.176 2.893,-8.765 0.215,-3.37 0.446,-6.998 1.259,-8.618 1.352,-2.699 3.556,2.174 4.201,2.15 3.204,-0.127 0.243,-13.523 0.293,-16.097 -1.414,0 -2.471,0.663 -2.41,2.213 0.159,4.041 1.996,10.093 1.533,10.111 -0.039,0.003 -5.129,-4.803 -6.586,-1.894 -1.032,2.06 -0.415,8.391 -0.643,11.986 -0.221,3.431 -0.974,5.144 -1.093,5.144 -9.556,-4.829 -7.528,10.196 -7.565,19.846 -0.027,7.888 1.021,16.292 1.548,20.495 0.118,0.948 0.211,1.702 0.244,2.02 m -4.183,4.671 c -4.11,-37.518 -6.888,-65.141 9.45,-74.18 -25.089,1.53 -57.691,28.906 -77.902,72.928 -5.537,-4.116 -5.549,-6.165 -5.549,-6.165 23.624,-48.031 59.194,-73.517 90.234,-74.311 25.106,-0.645 43.236,16.245 43.639,48.727 1.622,13.288 0.147,29.492 1.163,40.78 C 80.398,15.851 43.961,16.642 36.994,16.751 7.278,17.206 -7.548,13.087 -7.663,7.5 -7.877,-2.933 -9.015,-10.141 -11.072,-14.124 -17.228,-5.157 -21.86,1.994 -28.322,10.931 -37.978,4.689 -45.993,2.403 -41.449,-6.195 -12.963,-60.121 9.145,-65.258 7.323,0.862 -16.048,6.919 5.378,14.465 26.804,14.299 c 29.553,-0.228 64.273,-3.065 41.429,-16.44 0.873,-19.05 2.207,-66.494 -21.282,-73.339 10.199,14.375 10.668,49.911 8.492,71.144 -1.296,-0.027 -4.855,-0.192 -6.083,-0.201 -4.469,-33.305 -7.751,-33.251 -9.847,0.163 -8.626,0.376 -18.703,0.066 -22.417,1.728"
           style="fill:#ffffff;fill-opacity:1;fill-rule:evenodd;stroke:none"
           id="path50" />
      </g>
      <g
         id="g52"
         transform="translate(374.7986,668.6358)">
        <path
           d="m 0,0 c 8.429,-4.015 18.224,-9.72 20.072,-18.722 1.945,-9.482 -7.058,-17.23 -14.471,-21.295 l -0.303,-0.164 -0.345,-0.035 c -14.253,-1.436 -30.435,-2.273 -43.828,-7.552 -6.109,-2.409 -12.577,-6.382 -14.012,-13.299 -1.726,-8.31 4.868,-16.049 10.475,-21.324 9.035,-8.5 20.308,-15.567 30.943,-21.905 21.321,-12.703 17.654,-31.001 1.958,-46.665 l -0.451,-0.451 -0.642,-0.04 c -3.432,-0.22 -6.862,-0.53 -10.274,-0.963 -7.59,-0.967 -22.392,-3.156 -24.798,-11.996 -0.181,-0.659 -0.212,-1.882 -0.244,-2.574 -0.078,-1.743 -0.098,-3.496 -0.106,-5.242 -0.018,-4.839 0.084,-9.69 0.22,-14.526 0.123,-4.516 0.286,-9.036 0.506,-13.549 0.133,-2.78 0.234,-5.731 0.56,-8.491 l 0.009,-0.084 v -0.089 c 0.295,-17.815 5.92,-36.05 21.55,-46.221 8.064,-5.248 17.768,-7.423 27.315,-7.175 18.676,0.476 33.723,6.949 48.232,18.457 15.729,12.481 30.907,30.57 40.81,48.032 6.101,10.759 12.354,21.547 19.208,31.848 20.415,30.697 60.043,68.396 98.551,70.963 l 0.09,0.006 0.087,-0.003 c 1.629,-0.06 3.183,0.028 4.799,0.235 6.652,0.843 12.294,12.709 9.829,18.638 -4.231,10.166 -17.614,11.535 -27.156,12.015 -3.31,0.165 -6.844,0.381 -9.69,-1.645 -1.126,-0.801 -1.972,-1.809 -2.635,-3.014 l -0.432,-0.783 -0.89,-0.09 c -18.831,-1.873 -39.308,-11.083 -55.27,-20.962 -22.191,-13.734 -41.937,-32.294 -56.502,-53.985 -2.432,-3.623 -5.025,-7.176 -7.576,-10.72 -3.251,-4.514 -6.501,-9.024 -9.68,-13.588 -0.858,-1.232 -1.71,-2.463 -2.554,-3.703 l -2.839,-4.164 -0.261,5.033 c -0.078,1.503 -0.13,3.002 -0.16,4.508 -0.154,7.476 -9.214,10.412 -15.208,11.761 -5.601,1.259 -11.416,1.879 -17.139,2.207 l -5.549,0.32 4.778,2.838 c 6.515,3.873 14.429,9.784 16.62,17.417 0.509,1.779 0.693,3.597 0.539,5.443 -0.598,7.194 -6.142,12.939 -11.462,17.268 -3.096,2.52 -6.38,4.806 -9.72,6.989 -11.538,7.545 -14.765,18.499 -11.722,31.631 1.882,8.115 7.125,15.124 14.38,19.216 5.054,2.845 10.224,5.468 15.291,8.286 8.115,4.513 24.521,13.441 24.079,24.311 -0.091,2.192 -0.651,4.257 -1.75,6.164 C 48.18,-2.68 33.445,0.014 24.278,0.804 18.804,1.277 13.214,1.295 7.734,0.891 5.244,0.707 2.587,0.437 0,0"
           style="fill:#262b33;fill-opacity:1;fill-rule:evenodd;stroke:none"
           id="path54" />
      </g>
      <g
         id="g56"
         transform="translate(412.1299,495.7455)">
        <path
           d="m 0,0 c 0.389,-9.821 1.575,-16.825 3.559,-21.016 4.113,-8.687 11.105,-2.409 15.435,2.216 -3.213,-1.461 -5.896,-0.979 -8.043,1.448 C 8.027,-14.052 6.33,-6.844 5.86,4.267 4.089,1.813 2.138,0.389 0,0 M 29.569,12.921 C 38.857,7.261 45.446,2.175 45.446,2.175 c -0.609,1.273 -2.253,2.167 -2.358,3.393 -0.206,2.306 2.026,6.564 3.51,7.302 0.862,0.427 3.843,-0.879 5.447,-1.417 -8.894,6.5 -16.289,10.977 -16.289,10.977 0,0 -2.243,-2.78 -6.187,-9.509 M 47.755,0.15 c 6.036,-3.423 9.997,-8.126 10.023,-8.979 0,0 4.541,6.965 6.643,10.109 C 62.861,3.532 58.624,7.709 54.062,9.703 55.936,7.928 58.83,5.79 58.618,4.751 58.184,2.643 56.68,-0.051 55.462,-0.997 53.205,-2.746 50.693,-1.318 47.755,0.15 m -85.787,12.413 c -17.097,-0.368 -30.899,-3.271 -30.83,-6.486 0.033,-1.544 3.261,-2.879 8.503,-3.806 -1.02,0.566 -1.58,1.183 -1.58,1.827 0,2.834 10.815,5.132 24.156,5.132 13.345,0 24.161,-2.298 24.161,-5.132 0,-0.165 -0.039,-0.328 -0.111,-0.491 4.269,1.09 6.81,2.419 6.78,3.801 -0.068,3.216 -13.983,5.521 -31.079,5.155 M 59.17,8.892 c 3.409,-2.303 6.302,-5.772 6.302,-5.772 20.146,34.825 64.96,79.184 108.18,81.821 0.873,-0.042 1.815,-0.129 4.288,0.185 3.007,0.381 7.007,8.628 5.759,11.619 -3.119,7.497 -14.896,8.487 -22.699,8.879 -6.216,0.311 -7.315,0.069 -8.784,-5.23 -30.872,-1.1 -83.547,-28.151 -114.31,-76.29 0,0 0.156,-0.111 12.911,-9.419 18.096,30.896 81.02,87.777 121.461,78.043 1.548,-0.373 1.368,-2.156 -0.445,-5.004 C 122.51,91.704 81.486,48.005 59.17,8.892 m -104.127,117.39 c -36.265,-21.549 -17.335,-36.475 4.504,-50.332 26.43,-16.765 57.122,-31.965 -0.59,-55.436 16.398,16.362 17.668,38.864 -5.149,52.461 -47.267,28.171 -57.501,47.39 1.235,53.307 m 15.039,1.777 c -25.533,-13.502 -52.322,-23.157 -3.55,-50.461 -14.076,10.493 -10.638,38.333 9.247,49.539 22.324,12.583 73.096,33.751 -5.691,44.711 22.435,-6.778 25.531,-30.288 -0.006,-43.789 m -21.417,-151.527 -2.231,9.145 c -0.065,-5.116 0.873,-18.16 2.321,-21.107 2.626,-5.354 6.528,-10.892 7.447,-11.162 2.414,-0.708 3.977,-3.269 6.175,-1.159 2.002,1.921 4.745,11.571 5.541,17.822 0.413,3.237 0.933,5.209 1.414,7.039 0.807,3.065 1.515,5.749 1.515,12.987 v 2.466 h -2.367 v -2.466 c 0,-6.953 -0.668,-9.488 -1.429,-12.385 -0.498,-1.89 -1.036,-3.925 -1.471,-7.346 -0.715,-5.642 -2.085,-8.805 -3.73,-10.382 -1.451,-1.394 -3.191,-1.475 -4.86,-0.988 -0.707,0.212 -3.868,2.021 -6.122,6.61 -1.306,2.662 -2.262,6.232 -2.203,10.926 m -3.125,-15.837 c 0.484,-7.465 -0.362,-4.975 3.523,-11.048 1.279,-1.999 1.679,-4.546 1.679,-9.157 0,-4.838 5.27,-16.479 5.264,-16.596 l 1.686,-0.376 c -3.282,6.573 -4.583,12.363 -4.583,16.972 0,5.285 0.193,9.506 -1.257,11.777 -0.932,1.454 -6.357,6.718 -6.312,8.428 m 55.122,14.043 -3.347,7.82 c 0.382,-0.63 2.128,-10.626 2.58,-11.677 0.482,-1.123 1.012,-2.351 1.674,-3.551 2.352,-4.271 1.487,-10.932 9.115,-6.728 3.496,1.927 9.12,7.073 10.327,9.27 1.003,1.825 2.113,3.851 5.179,6.212 0.946,0.729 0.851,1.155 0.671,1.966 l 10.1,15.896 c -3.933,-6.192 -15.372,-18.115 -18.022,-22.938 -1.029,-1.876 -1.942,-3.539 -4.835,-5.134 -5.877,-3.238 -8.687,-0.637 -10.466,2.592 -0.598,1.081 -1.106,2.268 -1.572,3.347 -0.473,1.104 -0.907,2.107 -1.404,2.925 m 31.318,31.3 -2.035,1.161 c -0.317,-0.252 0.463,-2.48 -0.268,-4.04 -1.94,-4.131 -7.124,-8.027 -9.736,-10.843 1.329,-3.742 -5.897,-8.885 -6.259,-8.961 2.424,-1.64 8.389,1.439 8.727,6.785 0.357,5.726 9.12,11.421 9.402,12.019 0.591,1.256 0.067,3.797 0.169,3.879 m -53.259,-13.355 -2.345,-0.241 c 0.066,-0.617 0.144,-1.255 0.246,-2.065 0.522,-4.179 1.563,-12.529 1.536,-20.209 -0.03,-8.416 -1.261,-16.092 -5.763,-16.076 -2.334,0.008 -2.602,-4.176 -2.89,-8.765 -0.217,-3.37 -0.448,-6.998 -1.259,-8.618 -1.353,-2.699 -3.557,2.174 -4.201,2.15 -3.203,-0.127 -0.243,-13.523 -0.295,-16.097 1.412,0 2.472,0.663 2.412,2.213 -0.16,4.041 -1.996,10.093 -1.533,10.111 0.04,0.003 5.129,-4.803 6.586,-1.894 1.03,2.06 0.415,8.391 0.645,11.986 0.216,3.431 0.972,5.144 1.092,5.144 9.554,-4.829 7.527,10.196 7.56,19.846 0.031,7.888 -1.019,16.292 -1.544,20.495 -0.117,0.948 -0.214,1.702 -0.247,2.02 m 4.183,4.671 c 4.113,-37.518 6.892,-65.141 -9.449,-74.18 25.088,1.53 57.691,28.906 77.904,72.928 5.537,-4.116 5.549,-6.165 5.549,-6.165 -23.625,-48.031 -59.193,-73.517 -90.235,-74.311 -25.105,-0.645 -43.234,16.245 -43.641,48.727 -1.623,13.288 -0.145,29.492 -1.162,40.78 -2.268,10.718 34.171,11.509 41.139,11.618 C -7.277,17.206 7.548,13.087 7.666,7.5 7.88,-2.933 9.015,-10.141 11.075,-14.124 17.233,-5.157 21.863,1.994 28.325,10.931 37.981,4.689 45.994,2.403 41.452,-6.195 12.962,-60.121 -9.144,-65.258 -7.32,0.862 c 23.371,6.057 1.942,13.603 -19.481,13.437 -29.557,-0.228 -64.273,-3.065 -41.429,-16.44 -0.873,-19.05 -2.207,-66.494 21.279,-73.339 -10.198,14.375 -10.665,49.911 -8.491,71.144 1.298,-0.027 4.857,-0.192 6.082,-0.201 4.469,-33.305 7.753,-33.251 9.849,0.163 8.627,0.376 18.705,0.066 22.415,1.728"
           style="fill:#ffffff;fill-opacity:1;fill-rule:evenodd;stroke:none"
           id="path58" />
      </g>
      <g
         id="g60"
         transform="translate(559.1814,635.2415)">
        <path
           d="m 0,0 c -2.325,2.164 -5.305,3.309 -8.618,3.309 -0.458,0 -0.911,-0.03 -1.362,-0.078 -0.868,0.651 -1.821,1.159 -2.828,1.512 0.027,0.342 0.041,0.682 0.041,1.023 0,2.969 -0.969,5.722 -2.814,7.974 -2.102,2.554 -5.025,4.03 -8.285,4.2 -0.193,0.392 -0.411,0.78 -0.653,1.164 -0.766,1.212 -1.721,2.298 -2.839,3.23 -0.921,0.768 -1.945,1.435 -3.064,1.996 -0.917,0.456 -1.855,0.795 -2.806,1.012 0.124,0.166 0.24,0.328 0.35,0.488 1.293,1.885 1.949,3.895 1.949,5.976 0,4.957 -3.762,9.976 -10.953,9.976 -1.546,0 -3.124,-0.101 -4.697,-0.301 -1.826,-0.233 -3.615,-0.656 -5.319,-1.257 -1.825,-0.644 -3.577,-1.528 -5.206,-2.626 -1.859,-1.253 -3.508,-2.86 -4.902,-4.778 -0.707,-0.944 -1.41,-1.922 -2.105,-2.927 -0.236,0.529 -0.497,1.046 -0.785,1.552 -1.391,2.441 -3.165,4.51 -5.272,6.149 -1.955,1.521 -4.094,2.687 -6.359,3.467 -2.301,0.792 -4.427,1.177 -6.498,1.177 -3.288,0 -6.701,-0.543 -10.146,-1.614 -3.338,-1.038 -6.457,-2.472 -9.272,-4.263 -3.026,-1.926 -5.596,-4.243 -7.638,-6.884 -2.625,-3.391 -4.013,-7.29 -4.013,-11.277 0,-2.269 0.494,-4.482 1.441,-6.51 -0.566,-0.314 -1.122,-0.65 -1.667,-1.007 -2.083,-1.362 -3.878,-3.046 -5.333,-5.001 -1.985,-2.663 -3.034,-5.785 -3.034,-9.03 0,-2.868 0.89,-5.727 2.643,-8.494 1.359,-2.149 3.16,-4.126 5.345,-5.873 2.065,-1.654 4.431,-3.042 7.033,-4.125 2.925,-1.218 6.025,-1.835 9.213,-1.835 3.469,0 6.863,1.109 9.812,3.208 0.863,0.614 1.699,1.298 2.505,2.05 0.915,-1.168 1.939,-2.162 3.049,-2.96 2.086,-1.504 4.471,-2.298 6.898,-2.298 2.331,0 4.186,0.822 5.383,1.443 1.01,0.525 2.011,1.167 3.059,1.963 0.834,0.633 1.637,1.337 2.395,2.099 0.239,-0.242 0.486,-0.476 0.739,-0.704 1.677,-1.51 3.602,-2.696 5.724,-3.527 2.16,-0.846 4.4,-1.274 6.656,-1.274 3.27,0 6.345,0.854 9.138,2.537 1.265,0.763 2.445,1.597 3.526,2.493 0.406,-0.4 0.837,-0.782 1.292,-1.143 1.537,-1.221 3.309,-2.185 5.267,-2.865 1.954,-0.678 4.094,-1.022 6.361,-1.022 3.184,0 6.182,0.816 8.917,2.414 2.098,-1.525 4.667,-2.35 7.422,-2.35 2.281,0 4.444,0.555 6.427,1.648 1.611,0.888 3.023,2.049 4.19,3.44 1.109,1.32 1.976,2.79 2.58,4.38 0.628,1.658 0.946,3.362 0.946,5.066 C 3.833,-5.528 2.474,-2.306 0,0"
           style="fill:#262b33;fill-opacity:1;fill-rule:nonzero;stroke:none"
           id="path62" />
      </g>
      <g
         id="g64"
         transform="translate(542.9478,631.5028)">
        <path
           d="M 0,0 C -0.218,0 -0.413,-0.055 -0.586,-0.163 -0.76,-0.271 -0.89,-0.369 -0.977,-0.456 -1.151,-0.629 -1.259,-0.781 -1.302,-0.911 -1.953,-1.997 -2.669,-2.929 -3.45,-3.711 -4.101,-4.449 -4.85,-5.1 -5.696,-5.664 -6.542,-6.228 -7.4,-6.51 -8.268,-6.51 c -0.651,0 -1.171,0.195 -1.562,0.586 -0.391,0.391 -0.586,0.954 -0.586,1.693 0,1.302 0.249,2.614 0.749,3.938 0.498,1.324 1.052,2.593 1.66,3.808 0.607,1.215 1.16,2.333 1.66,3.353 0.498,1.019 0.748,1.898 0.748,2.637 0,0.867 -0.25,1.605 -0.748,2.213 -0.5,0.607 -1.139,0.911 -1.921,0.911 -0.39,0 -0.76,-0.043 -1.106,-0.13 -0.348,-0.087 -0.716,-0.185 -1.107,-0.293 -0.391,-0.109 -0.836,-0.206 -1.335,-0.293 -0.499,-0.087 -1.117,-0.13 -1.855,-0.13 -0.781,0 -1.432,0.108 -1.953,0.326 -0.521,0.216 -0.781,0.563 -0.781,1.041 0,0.521 0.14,1.063 0.423,1.628 0.282,0.563 0.423,1.279 0.423,2.148 0,0.303 -0.13,0.661 -0.39,1.074 -0.261,0.412 -0.586,0.781 -0.977,1.107 -0.39,0.325 -0.825,0.607 -1.302,0.846 -0.478,0.238 -0.934,0.358 -1.367,0.358 -0.39,0 -0.803,-0.13 -1.237,-0.391 -0.434,-0.26 -0.846,-0.608 -1.237,-1.041 -0.39,-0.435 -0.706,-0.944 -0.944,-1.53 -0.239,-0.586 -0.358,-1.204 -0.358,-1.855 0,-0.825 0.108,-1.541 0.326,-2.149 0.217,-0.608 0.456,-1.106 0.716,-1.497 0.303,-0.478 0.672,-0.869 1.107,-1.172 -0.955,-3.082 -1.986,-5.566 -3.093,-7.453 -0.951,-1.624 -1.717,-2.868 -2.3,-3.737 -0.14,-0.149 -0.231,-0.281 -0.27,-0.395 0,-0.001 -10e-4,-0.002 -10e-4,-0.002 -0.001,-0.002 -0.003,-0.005 -0.004,-0.007 -0.65,-1.083 -1.364,-2.013 -2.144,-2.793 -0.651,-0.738 -1.399,-1.389 -2.246,-1.953 -0.846,-0.564 -1.703,-0.846 -2.571,-0.846 -1.085,0 -1.975,0.336 -2.669,1.009 -0.695,0.673 -1.042,1.768 -1.042,3.288 0,1.692 0.238,3.678 0.716,5.956 0.477,2.279 1.107,4.644 1.888,7.096 0.781,2.451 1.638,4.893 2.572,7.324 0.932,2.43 1.844,4.676 2.734,6.738 0.889,2.06 1.714,3.829 2.474,5.305 0.758,1.475 1.356,2.474 1.79,2.995 0.607,0.651 1.03,1.149 1.269,1.497 0.238,0.347 0.358,0.629 0.358,0.846 0,0.608 -0.629,0.912 -1.888,0.912 -1.171,0 -2.354,-0.076 -3.548,-0.228 -1.194,-0.153 -2.343,-0.423 -3.45,-0.814 -1.106,-0.391 -2.159,-0.922 -3.157,-1.595 -0.999,-0.673 -1.888,-1.552 -2.669,-2.637 -1.432,-1.91 -2.832,-3.949 -4.199,-6.119 -1.367,-2.17 -2.68,-4.351 -3.938,-6.542 -1.26,-2.192 -2.453,-4.329 -3.581,-6.412 -1.129,-2.084 -2.138,-3.994 -3.027,-5.729 -0.89,-1.736 -1.66,-3.222 -2.311,-4.459 -0.651,-1.237 -1.129,-2.116 -1.432,-2.637 0,0.824 0.086,2.267 0.26,4.329 0.173,2.061 0.358,4.383 0.553,6.966 0.196,2.581 0.38,5.229 0.554,7.942 0.173,2.711 0.26,5.132 0.26,7.258 0,1.866 -0.402,3.504 -1.204,4.915 -0.804,1.41 -1.79,2.572 -2.962,3.483 -1.172,0.912 -2.42,1.595 -3.743,2.051 -1.325,0.455 -2.507,0.683 -3.548,0.683 -2.388,0 -4.872,-0.401 -7.454,-1.204 -2.583,-0.803 -4.948,-1.888 -7.096,-3.255 -2.148,-1.367 -3.928,-2.962 -5.338,-4.785 -1.411,-1.823 -2.116,-3.733 -2.116,-5.728 0,-1.302 0.369,-2.497 1.107,-3.581 0.737,-1.085 1.649,-2.041 2.734,-2.864 1.084,-0.825 2.224,-1.465 3.418,-1.921 1.193,-0.456 2.223,-0.683 3.092,-0.683 0.911,0 1.367,0.433 1.367,1.302 0,0.216 -0.174,0.498 -0.521,0.846 -0.347,0.347 -0.716,0.781 -1.106,1.302 -0.391,0.521 -0.76,1.149 -1.107,1.888 -0.348,0.737 -0.521,1.605 -0.521,2.604 0,1.562 0.456,3.081 1.367,4.557 0.912,1.475 2.007,2.777 3.288,3.906 1.279,1.128 2.625,2.028 4.036,2.701 1.41,0.673 2.614,1.009 3.613,1.009 1.214,0 2.083,-0.293 2.604,-0.878 0.521,-0.586 0.781,-1.27 0.781,-2.051 0,-1.346 -0.337,-3.157 -1.009,-5.436 -0.673,-2.278 -1.574,-4.742 -2.702,-7.389 -1.129,-2.647 -2.408,-5.338 -3.84,-8.072 -1.433,-2.734 -2.909,-5.198 -4.427,-7.389 -1.52,-2.192 -3.027,-3.982 -4.525,-5.37 -1.497,-1.39 -2.854,-2.084 -4.068,-2.084 -1.259,0 -2.334,0.445 -3.223,1.335 -0.89,0.889 -1.334,2.028 -1.334,3.418 0,0.867 0.14,1.692 0.423,2.473 0.282,0.782 0.64,1.486 1.074,2.116 0.433,0.629 0.889,1.193 1.367,1.693 0.477,0.498 0.889,0.879 1.237,1.139 0.477,0.39 0.814,0.705 1.009,0.944 0.195,0.238 0.293,0.553 0.293,0.944 0,0.651 -0.543,0.976 -1.627,0.976 -0.956,0 -2.084,-0.227 -3.386,-0.683 -1.302,-0.456 -2.55,-1.074 -3.743,-1.855 -1.194,-0.782 -2.203,-1.726 -3.027,-2.832 -0.825,-1.107 -1.237,-2.311 -1.237,-3.613 0,-1.13 0.412,-2.344 1.237,-3.646 0.824,-1.302 1.942,-2.517 3.353,-3.645 1.41,-1.13 3.027,-2.073 4.85,-2.832 1.822,-0.759 3.732,-1.139 5.728,-1.139 1.605,0 3.125,0.51 4.557,1.529 1.432,1.02 2.767,2.365 4.004,4.037 1.237,1.67 2.386,3.59 3.45,5.761 1.063,2.169 2.04,4.415 2.93,6.738 0.888,2.321 1.692,4.632 2.408,6.933 0.716,2.299 1.377,4.404 1.986,6.314 0,-0.911 -0.044,-2.05 -0.13,-3.417 -0.088,-1.368 -0.196,-2.832 -0.326,-4.395 -0.13,-1.562 -0.283,-3.157 -0.456,-4.784 -0.174,-1.628 -0.325,-3.18 -0.455,-4.655 -0.131,-1.476 -0.239,-2.799 -0.326,-3.971 -0.087,-1.172 -0.13,-2.083 -0.13,-2.734 0,-0.999 0.152,-1.932 0.456,-2.8 0.303,-0.868 0.693,-1.649 1.171,-2.343 0.478,-0.695 0.987,-1.237 1.53,-1.627 0.542,-0.391 1.074,-0.586 1.595,-0.586 0.261,0 0.661,0.141 1.205,0.423 0.542,0.281 1.128,0.661 1.757,1.139 0.629,0.477 1.226,1.019 1.79,1.627 0.564,0.608 0.998,1.259 1.302,1.953 0.303,0.694 0.792,1.725 1.465,3.093 0.672,1.367 1.443,2.95 2.311,4.752 0.868,1.8 1.823,3.71 2.865,5.729 1.041,2.018 2.093,3.992 3.157,5.924 1.063,1.93 2.116,3.732 3.157,5.403 1.042,1.67 1.996,3.07 2.865,4.199 -0.869,-2.041 -1.726,-4.199 -2.572,-6.478 -0.846,-2.278 -1.617,-4.535 -2.311,-6.77 -0.695,-2.236 -1.248,-4.394 -1.66,-6.477 -0.413,-2.084 -0.618,-3.929 -0.618,-5.534 0,-1.345 0.27,-2.571 0.813,-3.678 0.542,-1.106 1.247,-2.051 2.116,-2.832 0.868,-0.781 1.855,-1.389 2.962,-1.822 1.107,-0.434 2.224,-0.651 3.353,-0.651 1.605,0 3.092,0.413 4.459,1.237 1.367,0.823 2.549,1.735 3.548,2.734 1.172,1.171 2.235,2.516 3.19,4.036 0,0 0,10e-4 0.001,0.002 0.693,0.997 1.604,2.505 2.732,4.522 1.128,2.018 2.322,4.611 3.581,7.779 0.737,-0.087 1.388,-0.195 1.953,-0.325 0.477,-0.13 0.921,-0.283 1.334,-0.456 0.412,-0.174 0.619,-0.434 0.619,-0.781 0,-0.521 -0.218,-1.183 -0.651,-1.985 -0.435,-0.804 -0.901,-1.726 -1.4,-2.767 -0.499,-1.042 -0.966,-2.192 -1.399,-3.451 -0.435,-1.259 -0.651,-2.603 -0.651,-4.036 0,-0.911 0.195,-1.757 0.585,-2.538 0.391,-0.782 0.955,-1.465 1.693,-2.051 0.737,-0.586 1.605,-1.053 2.604,-1.4 0.998,-0.346 2.126,-0.52 3.385,-0.52 1.605,0 3.092,0.413 4.459,1.237 1.368,0.823 2.549,1.735 3.548,2.734 1.172,1.171 2.235,2.516 3.19,4.036 0.087,0.216 0.173,0.412 0.261,0.585 0.086,0.174 0.162,0.336 0.227,0.489 0.066,0.151 0.098,0.314 0.098,0.488 0,0.347 -0.141,0.651 -0.423,0.911 C 0.661,-0.13 0.347,0 0,0"
           style="fill:#ffffff;fill-opacity:1;fill-rule:nonzero;stroke:none"
           id="path66" />
      </g>
      <g
         id="g68"
         transform="translate(553.0049,628.606)">
        <path
           d="m 0,0 c -0.63,0.586 -1.443,0.879 -2.441,0.879 -0.651,0 -1.292,-0.174 -1.921,-0.521 -0.629,-0.348 -1.171,-0.781 -1.627,-1.302 -0.456,-0.521 -0.825,-1.096 -1.107,-1.725 -0.282,-0.63 -0.423,-1.227 -0.423,-1.79 0,-1.042 0.303,-1.878 0.911,-2.507 0.608,-0.628 1.433,-0.944 2.474,-0.944 0.738,0 1.421,0.174 2.051,0.521 0.628,0.347 1.172,0.792 1.627,1.335 0.456,0.542 0.803,1.128 1.042,1.757 0.238,0.629 0.358,1.247 0.358,1.856 C 0.944,-1.4 0.629,-0.586 0,0"
           style="fill:#ffffff;fill-opacity:1;fill-rule:nonzero;stroke:none"
           id="path70" />
      </g>
    </g>
    <g
       id="g32"
       transform="matrix(0.28446153,0,0,-0.28446153,48.056324,158.21689)"
       inkscape:label="Left Arm">
      <path
         d="m 0,0 c -4.555,-13.765 19.646,-26.781 2.193,-50.605 -0.563,0.442 -1.116,0.844 -1.647,1.199 -20.164,13.559 -23.304,27.788 -1.937,50.473 C 1.627,4.272 0.646,1.955 0,0 m -21.449,28.16 c 3.543,2.543 2.123,0.437 1.096,-1.381 -7.204,-12.754 12.945,-31.104 -8.368,-51.057 -16.86,18.321 -19.682,33.09 7.272,52.438 m -13.79,27.892 c 3.727,1.767 2.035,0.009 0.754,-1.545 -9.008,-10.952 6.308,-32.703 -17.386,-47.826 -12.486,20.825 -11.181,36.188 16.632,49.371 m -7.722,32.363 c 3.882,1.181 1.972,-0.316 0.495,-1.675 -10.565,-9.73 1.504,-34.709 -25.367,-45.88 -7.974,23.262 -3.392,38.97 24.872,47.555 m -3.079,32.54 c 3.725,0.536 1.762,-0.6 0.215,-1.667 -11.144,-7.702 -3.5,-33.563 -30.328,-39.909 -2.431,23.448 2.321,37.593 30.113,41.576 m 5.523,31.445 c 3.557,-0.172 1.534,-0.91 -0.095,-1.665 -11.803,-5.472 -9.124,-32.408 -35.79,-33.26 2.082,23.248 9.721,36.175 35.885,34.925 m 12.836,32.087 c 3.373,-0.891 1.293,-1.224 -0.408,-1.654 -12.395,-3.118 -14.969,-30.892 -40.909,-26.111 6.604,22.866 16.675,34.274 41.317,27.765 m -33.628,4.881 c -2.763,-6.012 -5.243,-12.069 -7.445,-18.155 0.595,15.566 -7.931,24.522 -24.778,27.248 -3.475,0.564 -1.848,-0.557 -0.603,-1.61 9.08,-7.694 -4.95,-33.217 20.929,-39.244 -2.56,-8.726 -4.558,-17.484 -6.013,-26.217 -2.392,15.016 -12.67,21.859 -30.109,21.059 -3.6,-0.163 -1.748,-0.91 -0.297,-1.664 10.594,-5.526 1.404,-32.793 28.548,-33.326 -0.856,-8.515 -1.197,-16.979 -1.032,-25.351 -5.218,14.71 -17.215,19.585 -35.313,15.313 -3.7,-0.876 -1.642,-1.247 0.003,-1.709 12.055,-3.396 7.576,-32.365 36.046,-27.369 0.536,-6.133 1.343,-12.198 2.426,-18.18 0.342,-1.9 0.713,-3.789 1.111,-5.67 -8.049,12.65 -21.237,15.05 -39.021,7.922 -3.804,-1.524 -1.55,-1.557 0.279,-1.753 13.385,-1.437 13.277,-31.913 42.794,-21.974 2.027,-6.704 4.419,-13.256 7.159,-19.628 -9.879,9.477 -23.015,9.226 -39.034,-0.079 -3.599,-2.089 -1.323,-1.759 0.545,-1.654 13.696,0.756 18.227,-28.793 46.421,-14.423 3.464,-6.236 7.299,-12.252 11.495,-18.009 -12.137,7.122 -25.71,4.049 -40.471,-8.48 -3.342,-2.835 -1.033,-2.027 0.903,-1.531 14.174,3.637 24.812,-24.906 51.468,-4.557 5.191,-5.68 10.794,-11.03 16.798,-16.002 -13.524,3.859 -26.359,-2.094 -38.41,-17.139 -2.755,-3.437 -0.608,-2.159 1.226,-1.256 13.431,6.588 30.063,-18.124 52.47,6.972 2.78,-2.277 5.779,-5.72 7.418,-10.31 1.41,-3.954 1.807,-8.785 0.163,-14.485 -0.334,-1.158 0.283,-2.265 1.376,-2.471 1.097,-0.206 2.254,0.562 2.588,1.72 0.25,0.861 0.46,1.71 0.63,2.538 0.015,0.122 0.039,0.249 0.076,0.376 0.479,2.436 0.629,4.728 0.53,6.874 -0.828,7.951 -6.072,16.099 -11.568,19.795 -39.955,26.866 -65.363,68.701 -73.898,115.895 -8.446,46.684 -0.282,96.134 26.531,144.013 0.698,2.296 4.058,4.411 1.21,-0.672 -3.376,-6.03 -6.447,-12.086 -9.218,-18.171 29.349,10.297 17.734,35.769 29.144,45.31 1.576,1.318 3.598,2.762 -0.431,1.67 -23.847,-6.459 -39.259,-25.933 -32.646,-45.616"
         style="fill:#ba813f;fill-opacity:1;fill-rule:evenodd;stroke:none"
         id="path34" />
    </g>
    <g
       id="g40"
       transform="matrix(0.28446153,0,0,-0.28446153,57.715187,177.9398)"
       inkscape:label="Left Dot">
      <path
         d="M 0,0 11.21,-14.95 -3.882,-25.936 -15.088,-10.985 Z"
         style="fill:#ba813f;fill-opacity:1;fill-rule:evenodd;stroke:none"
         id="path42" />
    </g>
    <g
       id="g28"
       transform="matrix(0.28446153,0,0,-0.28446153,159.43189,157.91342)"
       style="display:inline"
       inkscape:label="Right Arm">
      <path
         d="m 0,0 c 21.367,-22.685 18.227,-36.913 -1.936,-50.473 -0.532,-0.355 -1.085,-0.757 -1.648,-1.199 -17.453,23.824 6.748,36.84 2.193,50.605 C -2.037,0.889 -3.018,3.205 0,0 M 20.059,27.094 C 47.012,7.745 44.19,-7.024 27.33,-25.345 6.017,-5.392 26.166,12.958 18.962,25.712 c -1.027,1.819 -2.447,3.924 1.097,1.382 m 13.79,27.891 C 61.661,41.802 62.967,26.439 50.481,5.614 26.786,20.737 42.102,42.488 33.094,53.44 c -1.281,1.555 -2.973,3.312 0.755,1.545 M 41.57,87.348 C 69.834,78.763 74.417,63.055 66.443,39.793 39.572,50.964 51.64,75.943 41.075,85.673 c -1.477,1.36 -3.387,2.856 0.495,1.675 m 3.079,32.54 c 27.792,-3.983 32.544,-18.127 30.113,-41.576 -26.827,6.346 -19.183,32.208 -30.327,39.909 -1.548,1.068 -3.51,2.203 0.214,1.667 m -5.523,31.445 c 26.164,1.25 33.804,-11.677 35.885,-34.925 -26.665,0.852 -23.987,27.788 -35.79,33.26 -1.629,0.755 -3.652,1.494 -0.095,1.665 M 26.29,183.42 c 24.642,6.509 34.713,-4.899 41.317,-27.765 -25.94,-4.781 -28.514,22.993 -40.908,26.111 -1.701,0.43 -3.781,0.764 -0.409,1.654 m 33.629,4.881 c 6.612,19.684 -8.8,39.157 -32.647,45.616 -4.028,1.092 -2.007,-0.352 -0.431,-1.67 11.411,-9.541 -0.205,-35.013 29.145,-45.31 -2.772,6.085 -5.843,12.142 -9.219,18.171 -2.848,5.084 0.513,2.968 1.211,0.673 C 74.791,157.901 82.955,108.452 74.508,61.768 65.974,14.573 40.565,-27.262 0.61,-54.127 c -5.496,-3.697 -10.74,-11.845 -11.568,-19.796 -0.099,-2.146 0.052,-4.438 0.531,-6.874 0.037,-0.127 0.06,-0.254 0.075,-0.376 0.171,-0.828 0.38,-1.676 0.63,-2.538 0.335,-1.157 1.491,-1.926 2.588,-1.72 1.094,0.206 1.71,1.313 1.377,2.471 -1.645,5.7 -1.248,10.532 0.162,14.486 1.639,4.589 4.638,8.032 7.418,10.309 22.407,-25.095 39.04,-0.384 52.47,-6.972 1.834,-0.903 3.982,-2.181 1.227,1.256 -12.052,15.045 -24.886,20.998 -38.411,17.139 6.004,4.973 11.607,10.323 16.799,16.003 26.656,-20.35 37.293,8.193 51.467,4.557 1.937,-0.497 4.245,-1.305 0.904,1.531 -14.762,12.528 -28.335,15.602 -40.472,8.479 4.197,5.758 8.031,11.773 11.495,18.01 28.194,-14.371 32.725,15.178 46.421,14.422 1.869,-0.104 4.144,-0.435 0.545,1.655 -16.019,9.304 -29.155,9.555 -39.034,0.078 2.74,6.372 5.133,12.924 7.159,19.628 29.517,-9.938 29.41,20.537 42.794,21.975 1.829,0.196 4.084,0.228 0.279,1.752 -17.784,7.129 -30.971,4.728 -39.021,-7.922 0.398,1.882 0.769,3.77 1.112,5.67 1.082,5.982 1.889,12.047 2.425,18.181 28.47,-4.997 23.992,23.973 36.046,27.368 1.645,0.462 3.703,0.834 0.003,1.709 -18.097,4.272 -30.095,-0.602 -35.313,-15.313 0.165,8.372 -0.176,16.836 -1.032,25.351 27.145,0.533 17.954,27.8 28.549,33.326 1.45,0.754 3.302,1.501 -0.298,1.665 -17.439,0.799 -27.717,-6.044 -30.109,-21.06 -1.454,8.734 -3.453,17.491 -6.013,26.217 25.879,6.027 11.849,31.55 20.93,39.244 1.244,1.054 2.872,2.174 -0.603,1.61 -16.847,-2.726 -25.374,-11.682 -24.779,-27.248 -2.202,6.086 -4.682,12.143 -7.444,18.155"
         style="fill:#ba813f;fill-opacity:1;fill-rule:evenodd;stroke:none"
         id="path30" />
    </g>
    <g
       id="g36"
       transform="matrix(0.28446153,0,0,-0.28446153,149.37748,177.9398)"
       inkscape:label="Right Dot">
      <path
         d="M 0,0 -11.21,-14.95 3.882,-25.936 15.088,-10.985 Z"
         style="fill:#ba813f;fill-opacity:1;fill-rule:evenodd;stroke:none"
         id="path38" />
    </g>
    <g
       inkscape:groupmode="layer"
       id="layer2"
       inkscape:label="Text">
      <g
         id="g72"
         transform="matrix(0.28446153,0,0,-0.28446153,75.912985,187.68519)">
        <path
           d="m 0,0 c -0.908,-1.412 -2.018,-2.623 -3.228,-3.732 -1.211,-1.009 -2.724,-1.917 -4.338,-2.522 -1.715,-0.605 -3.53,-0.908 -5.548,-0.908 -2.622,0 -5.044,0.605 -7.263,1.816 -2.118,1.21 -4.035,2.824 -5.649,4.942 -1.614,2.119 -2.824,4.54 -3.631,7.364 -0.807,2.825 -1.312,5.851 -1.312,9.18 0,3.833 0.404,7.263 1.211,10.289 0.807,3.026 1.917,5.649 3.329,7.667 1.513,2.118 3.329,3.631 5.346,4.741 2.018,1.109 4.237,1.614 6.658,1.614 2.118,0 3.934,-0.505 5.548,-1.412 1.614,-0.908 3.026,-2.22 4.237,-3.935 1.109,-1.513 2.017,-3.329 2.824,-5.447 C -1.009,27.539 -0.403,25.521 0,23.705 H 3.026 L 2.724,42.367 h -2.926 l -1.513,-2.522 c -1.917,1.11 -3.934,2.018 -5.952,2.724 -2.118,0.605 -4.438,1.009 -7.061,1.009 -3.43,0 -6.759,-0.706 -9.785,-2.018 -3.026,-1.311 -5.75,-3.228 -7.969,-5.649 -2.219,-2.421 -4.035,-5.447 -5.346,-8.776 -1.312,-3.43 -1.917,-7.263 -1.917,-11.399 0,-4.236 0.605,-7.969 1.917,-11.298 1.311,-3.329 3.026,-6.153 5.245,-8.473 2.219,-2.32 4.741,-4.136 7.667,-5.347 2.824,-1.21 5.85,-1.815 8.978,-1.815 4.842,0 8.977,1.109 12.508,3.329 3.531,2.219 6.355,5.951 8.474,11.197 L 2.219,4.64 C 1.715,2.925 0.908,1.412 0,0"
           style="fill:#ba813f;fill-opacity:1;fill-rule:nonzero;stroke:none"
           id="path74" />
      </g>
      <g
         id="g76"
         transform="matrix(0.28446153,0,0,-0.28446153,78.466826,176.35065)">
        <path
           d="m 0,0 c 0.706,0 1.614,-0.202 2.724,-0.504 1.109,-0.303 2.017,-0.505 2.824,-0.807 1.009,-0.404 1.614,-0.908 1.917,-1.413 0.302,-0.605 0.403,-1.311 0.403,-2.118 v -38.03 c 0,-1.009 -0.201,-1.715 -0.504,-2.32 C 6.96,-45.696 6.355,-46.201 5.548,-46.503 5.044,-46.705 4.136,-46.806 2.925,-46.907 1.715,-47.008 0.706,-47.109 0,-47.109 v -2.622 h 23.605 v 2.622 c -0.807,0 -1.816,0.202 -3.026,0.404 -1.211,0.202 -2.018,0.403 -2.522,0.605 -0.908,0.404 -1.513,0.908 -1.816,1.513 -0.404,0.605 -0.505,1.312 -0.505,2.119 v 37.929 c 0,0.807 0.202,1.513 0.505,2.219 0.303,0.706 0.908,1.109 1.917,1.412 0.807,0.202 1.714,0.404 2.723,0.605 C 21.991,-0.101 22.899,0 23.605,0 V 2.623 H 0 Z"
           style="fill:#ba813f;fill-opacity:1;fill-rule:nonzero;stroke:none"
           id="path78" />
      </g>
      <g
         id="g80"
         transform="matrix(0.28446153,0,0,-0.28446153,101.48027,183.81137)">
        <path
           d="m 0,0 h -23 v -2.724 c 0.807,-0.1 1.917,-0.201 3.228,-0.302 1.413,-0.202 2.522,-0.505 3.329,-0.807 0.908,-0.404 1.513,-0.908 1.715,-1.715 0.202,-0.807 0.404,-1.715 0.404,-2.724 v -2.925 -3.329 c 0,-1.311 -0.101,-2.623 -0.303,-3.833 -0.706,-0.706 -2.018,-1.413 -3.833,-2.119 -1.816,-0.706 -3.733,-1.008 -5.952,-1.008 -2.925,0 -5.548,0.605 -7.767,1.916 -2.32,1.211 -4.237,3.027 -5.75,5.145 -1.513,2.118 -2.724,4.741 -3.531,7.666 -0.807,2.926 -1.21,6.053 -1.21,9.382 0,3.732 0.403,7.162 1.21,10.289 0.807,3.026 2.018,5.649 3.43,7.666 1.513,2.119 3.329,3.733 5.447,4.742 2.119,1.109 4.439,1.614 7.062,1.614 2.421,0 4.539,-0.505 6.254,-1.413 1.715,-0.908 3.228,-2.118 4.438,-3.732 1.211,-1.513 2.22,-3.329 2.926,-5.246 0.807,-1.916 1.412,-3.934 1.916,-5.951 h 3.027 l -0.303,18.359 h -2.925 l -1.514,-2.522 c -1.714,1.009 -3.631,1.917 -5.85,2.623 -2.22,0.706 -4.741,1.109 -7.768,1.109 -3.732,0 -7.162,-0.706 -10.39,-2.017 -3.228,-1.412 -6.052,-3.329 -8.373,-5.75 -2.421,-2.522 -4.236,-5.447 -5.649,-8.877 -1.311,-3.43 -2.017,-7.162 -2.017,-11.096 0,-4.136 0.706,-7.868 2.118,-11.197 1.413,-3.329 3.228,-6.154 5.548,-8.575 2.321,-2.32 5.044,-4.135 8.171,-5.346 3.127,-1.211 6.355,-1.917 9.684,-1.917 3.127,0 6.355,0.404 9.583,1.211 3.228,0.807 6.557,1.917 9.785,3.43 -0.101,0.706 -0.101,1.513 -0.101,2.521 0,1.009 -0.1,3.027 -0.1,5.952 v 4.035 c 0,0.908 0.201,1.715 0.504,2.421 0.303,0.706 0.807,1.211 1.614,1.614 0.605,0.303 1.412,0.505 2.421,0.706 1.009,0.202 1.816,0.303 2.421,0.303 V 0 Z"
           style="fill:#ba813f;fill-opacity:1;fill-rule:nonzero;stroke:none"
           id="path82" />
      </g>
      <g
         id="g84"
         transform="matrix(0.28446153,0,0,-0.28446153,106.10016,184.44267)">
        <path
           d="M 0,0 7.767,20.377 15.736,0 Z m 32.381,-17.552 c -0.807,0.605 -1.513,1.109 -1.917,1.715 -0.504,0.605 -0.908,1.412 -1.21,2.32 L 11.802,31.776 H 8.877 C 6.355,25.32 3.531,18.057 0.403,9.886 -2.825,1.715 -5.649,-5.75 -8.373,-12.307 c -0.504,-1.311 -1.008,-2.32 -1.614,-3.026 -0.605,-0.706 -1.311,-1.412 -2.32,-2.118 -0.605,-0.404 -1.412,-0.706 -2.32,-0.908 -1.009,-0.202 -1.715,-0.404 -2.421,-0.404 v -2.622 H 2.723 v 2.622 c -1.916,0.101 -3.732,0.404 -5.245,1.009 -1.513,0.504 -2.32,1.311 -2.32,2.32 0,0.404 0.101,1.009 0.202,1.614 0.1,0.706 0.302,1.513 0.706,2.623 0.302,1.109 0.706,2.219 1.21,3.53 0.404,1.312 1.009,2.825 1.715,4.54 H 17.35 l 4.338,-11.803 c 0.101,-0.201 0.201,-0.504 0.201,-0.807 0.101,-0.302 0.101,-0.605 0.101,-0.807 0,-0.504 -0.605,-1.008 -1.916,-1.412 -1.312,-0.403 -2.825,-0.605 -4.741,-0.706 v -2.623 h 21.889 v 2.623 c -0.605,0 -1.412,0.202 -2.32,0.404 -1.21,0.1 -2.017,0.302 -2.521,0.706"
           style="fill:#ba813f;fill-opacity:1;fill-rule:nonzero;stroke:none"
           id="path86" />
      </g>
      <g
         id="g88"
         transform="matrix(0.28446153,0,0,-0.28446153,122.74332,182.86442)">
        <path
           d="m 0,0 h -4.842 v 22.495 h 6.254 c 3.329,0 5.952,-0.908 7.767,-2.824 1.816,-1.816 2.724,-4.338 2.724,-7.566 0,-3.732 -1.11,-6.759 -3.43,-8.877 C 6.254,1.009 3.43,0 0,0 m 26.53,-23.302 c -0.908,0.403 -1.715,1.009 -2.623,1.715 -0.908,0.706 -1.816,1.816 -2.925,3.228 -2.522,3.329 -4.64,6.153 -6.254,8.574 -1.715,2.32 -3.834,5.246 -6.456,8.675 1.916,0.505 3.631,1.211 5.144,2.018 1.513,0.807 2.926,1.715 4.035,2.724 1.211,1.109 2.119,2.521 2.724,4.035 0.605,1.513 0.908,3.328 0.908,5.346 0,2.219 -0.505,4.136 -1.413,5.75 -0.907,1.614 -2.118,2.925 -3.631,3.833 -1.614,1.009 -3.329,1.715 -5.245,2.219 -1.917,0.505 -4.035,0.706 -6.255,0.706 h -24.21 v -2.622 c 0.706,0 1.513,-0.202 2.522,-0.303 1.009,-0.202 1.816,-0.403 2.421,-0.605 0.908,-0.303 1.513,-0.807 1.715,-1.513 0.202,-0.706 0.404,-1.413 0.404,-2.32 v -37.929 c 0,-1.009 -0.202,-1.715 -0.505,-2.32 -0.302,-0.606 -0.908,-1.11 -1.614,-1.413 -0.403,-0.202 -1.21,-0.403 -2.32,-0.504 -1.11,-0.101 -2.017,-0.202 -2.522,-0.303 v -2.622 H 2.623 v 2.622 c -0.807,0 -1.715,0.101 -2.825,0.303 -1.109,0.101 -1.917,0.302 -2.32,0.504 -0.908,0.303 -1.513,0.807 -1.715,1.513 -0.303,0.606 -0.403,1.413 -0.403,2.32 v 16.645 h 5.346 c 2.925,-3.833 5.75,-7.465 8.272,-11.096 2.522,-3.531 5.346,-7.768 8.473,-12.711 h 14.123 v 2.623 c -0.605,0 -1.413,0.101 -2.421,0.303 -1.211,0 -2.018,0.302 -2.623,0.605"
           style="fill:#ba813f;fill-opacity:1;fill-rule:nonzero;stroke:none"
           id="path90" />
      </g>
      <g
         id="g92"
         transform="matrix(0.28446153,0,0,-0.28446153,141.53854,183.69659)">
        <path
           d="m 0,0 c -1.009,1.11 -2.219,2.018 -3.531,2.824 -1.412,0.807 -2.824,1.514 -4.236,2.22 -1.614,0.706 -3.329,1.412 -5.044,2.017 -1.715,0.605 -3.531,1.413 -5.346,2.22 -2.018,1.008 -3.531,2.219 -4.641,3.631 -1.109,1.513 -1.614,3.329 -1.614,5.649 0,2.219 0.807,4.035 2.522,5.548 1.614,1.513 3.632,2.219 5.952,2.219 2.219,0 4.136,-0.403 5.649,-1.311 1.513,-0.807 2.824,-2.018 3.833,-3.43 1.11,-1.513 2.018,-3.127 2.623,-4.943 0.706,-1.815 1.311,-3.732 1.816,-5.75 H 1.009 L 0.706,28.346 h -2.925 l -1.513,-2.522 c -1.614,1.009 -3.329,1.816 -5.246,2.623 -1.916,0.706 -4.035,1.109 -6.456,1.109 -2.118,0 -4.136,-0.403 -6.052,-1.109 -1.917,-0.706 -3.632,-1.715 -5.044,-3.027 -1.513,-1.311 -2.623,-2.925 -3.43,-4.64 -0.807,-1.715 -1.21,-3.631 -1.21,-5.548 0,-3.43 0.807,-6.254 2.421,-8.473 1.614,-2.119 3.934,-3.935 6.859,-5.246 1.513,-0.706 3.329,-1.412 5.347,-2.219 2.118,-0.807 3.934,-1.513 5.548,-2.119 2.32,-0.908 4.136,-2.32 5.245,-4.135 1.211,-1.816 1.816,-3.733 1.816,-5.851 0,-1.412 -0.202,-2.724 -0.605,-3.833 -0.404,-1.11 -1.009,-2.018 -1.715,-2.825 -0.706,-0.807 -1.816,-1.412 -3.127,-1.917 -1.311,-0.403 -2.724,-0.706 -4.439,-0.706 -2.219,0 -4.236,0.404 -5.951,1.312 -1.715,0.908 -3.228,2.017 -4.54,3.429 -1.311,1.514 -2.421,3.228 -3.228,5.044 -0.807,1.816 -1.513,3.833 -2.118,6.053 h -3.026 l 0.504,-17.956 h 2.926 l 1.614,2.724 c 1.714,-1.009 3.732,-1.917 6.052,-2.623 2.32,-0.706 4.64,-1.11 7.061,-1.11 5.044,0 9.382,1.513 12.711,4.54 3.429,3.026 5.144,6.859 5.144,11.499 0,1.917 -0.303,3.632 -0.807,5.145 C 1.917,-2.623 1.11,-1.211 0,0"
           style="fill:#ba813f;fill-opacity:1;fill-rule:nonzero;stroke:none"
           id="path94" />
      </g>
    </g>
    <text
       xml:space="preserve"
       style="font-weight:300;font-size:33.5634px;font-family:Inter;-inkscape-font-specification:'Inter Light';text-align:center;text-anchor:middle;fill:#ba813f;fill-opacity:1;stroke-width:0.125862"
       x="104.68774"
       y="67.746803"
       id="text329"><tspan
         sodipodi:role="line"
         id="tspan327"
         style="font-style:normal;font-variant:normal;font-weight:bold;font-stretch:normal;font-size:33.5634px;font-family:Inter;-inkscape-font-specification:'Inter Bold';fill:#ba813f;fill-opacity:1;stroke-width:0.125862"
         x="104.68774"
         y="67.746803">Admin</tspan></text>
  </g>
</svg>
